<?xml version="1.0" encoding="UTF-8"?>
<svg xmlns="http://www.w3.org/2000/svg" xmlns:xlink="http://www.w3.org/1999/xlink" width="30px" height="16px" viewBox="0 0 30 16" version="1.1">
<g id="surface1">
<path style=" stroke:none;fill-rule:nonzero;fill:rgb(100%,74.509805%,0%);fill-opacity:1;" d="M 15.328125 1.5 C 15.230469 1.503906 15.140625 1.542969 15.070312 1.617188 L 13.84375 2.882812 C 13.753906 2.976562 13.71875 3.105469 13.742188 3.230469 C 13.769531 3.355469 13.859375 3.460938 13.976562 3.507812 L 13.054688 4.144531 C 12.90625 4.246094 12.851562 4.4375 12.917969 4.601562 C 12.988281 4.769531 13.160156 4.867188 13.335938 4.832031 L 14.226562 4.660156 L 12.488281 6 C 12.472656 5.863281 12.386719 5.742188 12.261719 5.6875 C 12.140625 5.632812 11.996094 5.652344 11.886719 5.734375 L 10.433594 6.863281 L 10.660156 6.191406 C 10.710938 6.035156 10.664062 5.867188 10.535156 5.765625 C 10.410156 5.667969 10.238281 5.65625 10.101562 5.746094 L 8.570312 6.738281 C 8.457031 6.8125 8.386719 6.941406 8.394531 7.078125 C 8.398438 7.214844 8.476562 7.339844 8.597656 7.402344 C 8.71875 7.464844 8.863281 7.457031 8.976562 7.382812 L 9.601562 6.976562 L 9.320312 7.804688 C 9.265625 7.964844 9.324219 8.140625 9.457031 8.238281 C 9.589844 8.335938 9.773438 8.332031 9.902344 8.230469 L 10.910156 7.449219 L 10.367188 8.445312 C 10.28125 8.597656 10.3125 8.792969 10.4375 8.910156 C 10.566406 9.03125 10.753906 9.046875 10.898438 8.949219 L 12.902344 7.605469 L 11.238281 8.851562 C 11.082031 8.96875 11.039062 9.1875 11.140625 9.359375 C 11.246094 9.527344 11.457031 9.585938 11.632812 9.496094 L 13.097656 8.738281 L 11.203125 10.136719 C 11.039062 10.257812 11 10.492188 11.113281 10.660156 C 11.230469 10.832031 11.457031 10.875 11.628906 10.761719 L 13.027344 9.828125 L 11.582031 11.070312 C 11.484375 11.15625 11.4375 11.285156 11.457031 11.414062 C 11.472656 11.542969 11.554688 11.65625 11.675781 11.707031 L 10.988281 12.300781 C 10.835938 12.429688 10.8125 12.660156 10.933594 12.820312 C 11.054688 12.984375 11.28125 13.019531 11.445312 12.902344 L 13.242188 11.625 L 11.640625 13 C 11.488281 13.132812 11.464844 13.367188 11.589844 13.53125 C 11.71875 13.691406 11.949219 13.71875 12.109375 13.59375 L 15.832031 10.726562 L 14.503906 12.023438 C 14.363281 12.160156 14.347656 12.386719 14.472656 12.539062 C 14.597656 12.691406 14.816406 12.722656 14.976562 12.609375 L 16.558594 11.488281 L 15.8125 12.453125 C 15.699219 12.597656 15.707031 12.808594 15.832031 12.945312 C 15.957031 13.085938 16.164062 13.109375 16.316406 13.003906 L 17.289062 12.332031 L 16.613281 13.300781 C 16.511719 13.445312 16.523438 13.644531 16.644531 13.777344 C 16.765625 13.910156 16.960938 13.9375 17.113281 13.847656 L 18.269531 13.148438 L 18.214844 13.578125 C 18.195312 13.714844 18.25 13.851562 18.359375 13.933594 C 18.464844 14.019531 18.609375 14.039062 18.734375 13.984375 C 18.855469 13.929688 18.945312 13.8125 18.957031 13.675781 L 19.109375 12.46875 C 19.128906 12.324219 19.0625 12.179688 18.941406 12.101562 C 18.824219 12.023438 18.667969 12.019531 18.546875 12.09375 L 18.253906 12.269531 L 19.101562 11.054688 C 19.203125 10.90625 19.1875 10.699219 19.0625 10.566406 C 18.933594 10.4375 18.734375 10.417969 18.582031 10.519531 L 17.898438 10.992188 L 18.714844 9.9375 C 18.8125 9.8125 18.820312 9.636719 18.738281 9.5 C 18.652344 9.367188 18.496094 9.296875 18.339844 9.332031 L 20.992188 6.742188 C 21.136719 6.601562 21.144531 6.371094 21.015625 6.21875 C 20.886719 6.066406 20.664062 6.042969 20.507812 6.164062 L 20.101562 6.476562 C 20.078125 6.347656 19.992188 6.242188 19.875 6.191406 C 19.757812 6.144531 19.625 6.160156 19.519531 6.230469 L 17.621094 7.582031 L 19.234375 6.191406 C 19.390625 6.058594 19.410156 5.824219 19.285156 5.664062 C 19.160156 5.503906 18.929688 5.472656 18.765625 5.597656 L 18.359375 5.90625 C 18.320312 5.796875 18.234375 5.714844 18.125 5.675781 C 18.015625 5.640625 17.894531 5.65625 17.800781 5.71875 L 17.464844 5.945312 C 17.351562 5.8125 17.164062 5.773438 17.011719 5.855469 L 15.375 6.703125 L 16.710938 5.699219 C 16.816406 5.625 16.875 5.503906 16.871094 5.375 C 16.863281 5.25 16.796875 5.132812 16.691406 5.066406 L 16.890625 4.929688 C 17.054688 4.820312 17.105469 4.597656 17.007812 4.425781 C 16.910156 4.25 16.695312 4.183594 16.515625 4.273438 L 14.988281 5.03125 L 15.949219 4.292969 C 16.085938 4.1875 16.136719 3.996094 16.066406 3.835938 C 15.996094 3.675781 15.824219 3.582031 15.652344 3.617188 L 14.960938 3.746094 L 15.648438 3.269531 C 15.792969 3.171875 15.851562 2.984375 15.785156 2.816406 C 15.722656 2.652344 15.558594 2.554688 15.382812 2.578125 L 15.160156 2.613281 L 15.605469 2.152344 C 15.714844 2.039062 15.746094 1.871094 15.6875 1.726562 C 15.625 1.585938 15.484375 1.492188 15.328125 1.5 Z M 15.328125 1.5 "/>
<path style="fill:none;stroke-width:12;stroke-linecap:butt;stroke-linejoin:round;stroke:rgb(26.666668%,26.666668%,26.666668%);stroke-opacity:1;stroke-miterlimit:4;" d="M -2.125 -100.22168 C -2.125 -100.22168 13.3125 -77.642578 20.625 -59.185547 C 26.3125 -44.789062 35.25 -33.161133 35.25 -33.161133 C 35.25 -33.161133 54.4375 -30.946289 74.6875 -26.885742 C 83.6875 -25.101562 102 -22.886719 102 -22.886719 C 102 -22.886719 86.5 -7.136719 79.8125 1.353516 C 68.625 15.56543 54.6875 26.824219 54.6875 26.824219 C 54.6875 26.824219 57.0625 42.758789 57.75 55.678711 C 58.6875 71.244141 64.625 100.22168 64.625 100.22168 C 64.625 100.22168 34.5625 84.47168 21.125 77.396484 C 13.5625 73.458984 0 63.861328 0 63.861328 C 0 63.861328 -19.625 71.920898 -34.25 81.395508 C -45.875 88.962891 -67.8125 97.022461 -67.8125 97.022461 C -67.8125 97.022461 -62.4375 69.398438 -58.5625 53.279297 C -55.25 39.313477 -49.9375 27.870117 -49.9375 27.870117 C -49.9375 27.870117 -64.4375 13.289062 -73.0625 6.890625 C -88.0625 -4.12207 -102 -22.886719 -102 -22.886719 C -102 -22.886719 -82.3125 -27.993164 -62.125 -28.731445 C -48.25 -29.223633 -34.1875 -33.161133 -34.1875 -33.161133 C -34.1875 -33.161133 -28.0625 -44.973633 -21.5 -62.876953 C -16.4375 -76.658203 -2.125 -100.22168 -2.125 -100.22168 Z M -2.125 -100.22168 " transform="matrix(0.0625,0,0,0.0634921,15,8)"/>
</g>
</svg>
