<?xml version="1.0" encoding="UTF-8"?>
<svg xmlns="http://www.w3.org/2000/svg" xmlns:xlink="http://www.w3.org/1999/xlink" width="29px" height="20px" viewBox="0 0 28 20" version="1.1">
<g id="surface1">
<path style=" stroke:none;fill-rule:nonzero;fill:rgb(99.607843%,74.117649%,0.784314%);fill-opacity:1;" d="M 15.355469 3.285156 C 15.476562 3.34375 15.519531 3.378906 15.59375 3.496094 C 15.660156 3.519531 15.660156 3.519531 15.738281 3.527344 C 15.894531 3.558594 15.96875 3.613281 16.066406 3.742188 C 16.132812 3.871094 16.109375 4.019531 16.078125 4.15625 C 16.066406 4.292969 16.09375 4.339844 16.160156 4.453125 C 16.179688 4.488281 16.203125 4.523438 16.222656 4.558594 C 16.246094 4.597656 16.269531 4.636719 16.292969 4.675781 C 16.339844 4.753906 16.386719 4.835938 16.433594 4.917969 C 16.445312 4.9375 16.457031 4.960938 16.46875 4.980469 C 16.640625 5.285156 16.78125 5.601562 16.925781 5.917969 C 16.949219 5.96875 16.949219 5.96875 16.972656 6.023438 C 17 6.082031 17.027344 6.144531 17.054688 6.207031 C 17.140625 6.390625 17.203125 6.429688 17.390625 6.503906 C 17.476562 6.605469 17.496094 6.6875 17.5 6.820312 C 17.492188 6.957031 17.492188 6.957031 17.46875 7.027344 C 17.453125 7.121094 17.476562 7.152344 17.527344 7.230469 C 17.546875 7.265625 17.546875 7.265625 17.570312 7.304688 C 17.597656 7.339844 17.597656 7.339844 17.621094 7.378906 C 17.644531 7.417969 17.644531 7.417969 17.667969 7.457031 C 17.785156 7.671875 17.785156 7.671875 17.972656 7.789062 C 18.015625 7.796875 18.0625 7.804688 18.109375 7.8125 C 18.132812 7.816406 18.15625 7.820312 18.183594 7.824219 C 18.234375 7.832031 18.285156 7.839844 18.335938 7.847656 C 18.414062 7.859375 18.492188 7.871094 18.570312 7.882812 C 18.621094 7.890625 18.671875 7.898438 18.722656 7.90625 C 18.753906 7.910156 18.753906 7.910156 18.792969 7.917969 C 18.980469 7.945312 19.125 7.949219 19.28125 7.828125 C 19.410156 7.75 19.476562 7.75 19.621094 7.773438 C 19.734375 7.8125 19.792969 7.875 19.863281 7.972656 C 19.875 8.007812 19.886719 8.042969 19.898438 8.078125 C 20.171875 8.1875 20.484375 8.214844 20.773438 8.257812 C 20.847656 8.269531 20.921875 8.28125 20.992188 8.292969 C 21.210938 8.324219 21.429688 8.359375 21.648438 8.386719 C 21.679688 8.390625 21.714844 8.394531 21.746094 8.398438 C 21.804688 8.40625 21.867188 8.414062 21.925781 8.421875 C 22.089844 8.441406 22.183594 8.476562 22.304688 8.601562 C 22.363281 8.707031 22.371094 8.769531 22.375 8.890625 C 22.324219 9.070312 22.226562 9.171875 22.101562 9.300781 C 22.078125 9.324219 22.058594 9.347656 22.035156 9.371094 C 21.988281 9.417969 21.941406 9.464844 21.898438 9.511719 C 21.8125 9.601562 21.730469 9.695312 21.652344 9.792969 C 21.597656 9.855469 21.539062 9.917969 21.480469 9.976562 C 21.351562 10.105469 21.238281 10.25 21.128906 10.394531 C 21.058594 10.480469 20.988281 10.5625 20.914062 10.648438 C 20.820312 10.753906 20.730469 10.867188 20.644531 10.980469 C 19.761719 12.097656 19.761719 12.097656 19.355469 12.308594 C 19.367188 12.527344 19.378906 12.746094 19.390625 12.972656 C 19.445312 12.996094 19.5 13.019531 19.558594 13.042969 C 19.660156 13.136719 19.6875 13.246094 19.703125 13.386719 C 19.691406 13.476562 19.664062 13.519531 19.613281 13.589844 C 19.398438 13.90625 19.542969 14.460938 19.59375 14.824219 C 19.605469 14.847656 19.617188 14.871094 19.628906 14.894531 C 19.636719 14.992188 19.648438 15.089844 19.65625 15.1875 C 19.691406 15.550781 19.75 15.90625 19.816406 16.265625 C 19.839844 16.382812 19.859375 16.503906 19.882812 16.621094 C 19.886719 16.648438 19.894531 16.671875 19.898438 16.699219 C 19.9375 16.914062 19.972656 17.121094 19.875 17.320312 C 19.789062 17.417969 19.75 17.457031 19.628906 17.484375 C 19.417969 17.46875 19.265625 17.394531 19.082031 17.296875 C 19.054688 17.28125 19.023438 17.265625 18.996094 17.25 C 18.703125 17.097656 18.417969 16.933594 18.132812 16.769531 C 17.84375 16.582031 17.84375 16.582031 17.527344 16.574219 C 17.355469 16.59375 17.230469 16.605469 17.085938 16.503906 C 17.015625 16.398438 17.015625 16.398438 16.984375 16.265625 C 16.910156 16.066406 16.757812 16.007812 16.582031 15.921875 C 16.265625 15.757812 15.980469 15.574219 15.699219 15.351562 C 15.554688 15.238281 15.554688 15.238281 15.378906 15.21875 C 15.300781 15.246094 15.300781 15.246094 15.222656 15.285156 C 15.152344 15.316406 15.152344 15.316406 15.035156 15.3125 C 14.863281 15.316406 14.734375 15.386719 14.582031 15.46875 C 14.535156 15.492188 14.535156 15.492188 14.488281 15.515625 C 14.074219 15.726562 13.675781 15.960938 13.285156 16.210938 C 12.746094 16.550781 12.171875 16.808594 11.59375 17.0625 C 11.550781 17.082031 11.550781 17.082031 11.507812 17.101562 C 11.433594 17.132812 11.359375 17.164062 11.285156 17.195312 C 11.242188 17.210938 11.203125 17.226562 11.164062 17.242188 C 11.03125 17.277344 10.945312 17.269531 10.8125 17.238281 C 10.679688 17.152344 10.621094 17.078125 10.578125 16.921875 C 10.582031 16.816406 10.582031 16.816406 10.601562 16.695312 C 10.605469 16.652344 10.613281 16.609375 10.621094 16.566406 C 10.65625 16.367188 10.691406 16.171875 10.730469 15.976562 C 10.742188 15.914062 10.742188 15.914062 10.757812 15.847656 C 10.773438 15.761719 10.792969 15.671875 10.808594 15.582031 C 10.835938 15.453125 10.863281 15.320312 10.890625 15.1875 C 10.984375 14.703125 11.089844 14.222656 11.210938 13.742188 C 11.316406 13.425781 11.316406 13.425781 11.289062 13.113281 C 11.265625 12.976562 11.257812 12.847656 11.328125 12.726562 C 11.40625 12.636719 11.488281 12.554688 11.574219 12.476562 C 11.589844 12.453125 11.609375 12.433594 11.628906 12.414062 C 11.617188 12.277344 11.546875 12.214844 11.457031 12.121094 C 11.429688 12.09375 11.398438 12.066406 11.371094 12.039062 C 11.277344 11.949219 11.183594 11.863281 11.089844 11.777344 C 11.003906 11.703125 10.921875 11.625 10.839844 11.546875 C 10.6875 11.402344 10.527344 11.269531 10.363281 11.140625 C 10.25 11.050781 10.144531 10.960938 10.042969 10.859375 C 9.921875 10.742188 9.816406 10.699219 9.660156 10.65625 C 9.546875 10.609375 9.507812 10.527344 9.457031 10.417969 C 9.449219 10.394531 9.441406 10.367188 9.429688 10.339844 C 9.378906 10.21875 9.304688 10.125 9.21875 10.027344 C 9.195312 10 9.195312 10 9.167969 9.972656 C 9.042969 9.835938 8.953125 9.785156 8.777344 9.765625 C 8.710938 9.753906 8.710938 9.753906 8.609375 9.679688 C 8.527344 9.558594 8.519531 9.480469 8.507812 9.335938 C 8.492188 9.179688 8.492188 9.179688 8.417969 9.046875 C 8.359375 8.925781 8.367188 8.847656 8.375 8.714844 C 8.425781 8.589844 8.496094 8.523438 8.609375 8.460938 C 8.761719 8.414062 8.910156 8.382812 9.066406 8.351562 C 9.128906 8.339844 9.128906 8.339844 9.195312 8.324219 C 9.371094 8.289062 9.546875 8.253906 9.726562 8.222656 C 9.980469 8.179688 9.980469 8.179688 10.199219 8.054688 C 10.328125 7.953125 10.445312 7.917969 10.609375 7.9375 C 10.636719 7.953125 10.660156 7.972656 10.6875 7.988281 C 10.808594 8.058594 10.917969 8.054688 11.054688 8.054688 C 11.082031 8.050781 11.109375 8.050781 11.136719 8.050781 C 11.53125 8.042969 11.921875 8.003906 12.304688 7.902344 C 12.382812 7.886719 12.457031 7.875 12.535156 7.863281 C 12.605469 7.855469 12.675781 7.84375 12.746094 7.832031 C 12.769531 7.828125 12.789062 7.828125 12.8125 7.824219 C 12.914062 7.785156 12.925781 7.722656 12.96875 7.625 C 12.984375 7.589844 13 7.554688 13.015625 7.519531 C 13.03125 7.480469 13.046875 7.445312 13.0625 7.40625 C 13.078125 7.371094 13.09375 7.332031 13.109375 7.296875 C 13.125 7.261719 13.140625 7.226562 13.152344 7.1875 C 13.167969 7.15625 13.179688 7.125 13.195312 7.089844 C 13.226562 6.972656 13.210938 6.898438 13.1875 6.785156 C 13.160156 6.546875 13.160156 6.546875 13.226562 6.433594 C 13.300781 6.339844 13.363281 6.269531 13.472656 6.21875 C 13.601562 6.121094 13.632812 5.996094 13.683594 5.839844 C 13.914062 5.210938 14.230469 4.625 14.558594 4.042969 C 14.589844 3.984375 14.625 3.925781 14.65625 3.867188 C 14.699219 3.792969 14.738281 3.71875 14.78125 3.648438 C 14.800781 3.609375 14.824219 3.566406 14.847656 3.527344 C 14.988281 3.316406 15.117188 3.246094 15.355469 3.285156 Z M 15.585938 5.695312 C 15.550781 5.722656 15.511719 5.75 15.476562 5.773438 C 15.433594 5.804688 15.433594 5.804688 15.390625 5.839844 C 15.390625 5.851562 15.390625 5.863281 15.390625 5.875 C 15.683594 5.855469 15.683594 5.855469 15.964844 5.769531 C 15.945312 5.699219 15.921875 5.628906 15.898438 5.558594 C 15.761719 5.558594 15.699219 5.617188 15.585938 5.695312 Z M 16.125 6.625 C 16.101562 6.640625 16.082031 6.660156 16.058594 6.679688 C 16.035156 6.699219 16.015625 6.71875 15.992188 6.738281 C 15.828125 6.875 15.664062 7.007812 15.492188 7.132812 C 15.515625 7.144531 15.535156 7.15625 15.558594 7.167969 C 15.695312 7.117188 15.820312 7.046875 15.949219 6.984375 C 15.984375 6.964844 16.023438 6.949219 16.058594 6.929688 C 16.09375 6.914062 16.128906 6.898438 16.164062 6.878906 C 16.195312 6.863281 16.226562 6.847656 16.261719 6.832031 C 16.347656 6.785156 16.347656 6.785156 16.40625 6.679688 C 16.382812 6.632812 16.363281 6.585938 16.339844 6.539062 C 16.222656 6.539062 16.210938 6.550781 16.125 6.625 Z M 14.101562 6.957031 C 14.023438 7.0625 13.964844 7.175781 13.964844 7.308594 C 14.09375 7.25 14.203125 7.164062 14.3125 7.074219 C 14.339844 7.054688 14.339844 7.054688 14.371094 7.03125 C 14.417969 6.996094 14.460938 6.960938 14.507812 6.921875 C 14.359375 6.878906 14.238281 6.882812 14.101562 6.957031 Z M 16.8125 8.191406 C 16.761719 8.230469 16.714844 8.265625 16.664062 8.304688 C 16.636719 8.324219 16.613281 8.34375 16.585938 8.367188 C 16.460938 8.464844 16.332031 8.5625 16.203125 8.664062 C 16.15625 8.699219 16.113281 8.734375 16.066406 8.769531 C 16.015625 8.808594 16.015625 8.808594 15.964844 8.847656 C 15.988281 8.859375 16.011719 8.871094 16.035156 8.882812 C 16.121094 8.84375 16.207031 8.800781 16.292969 8.757812 C 16.316406 8.742188 16.34375 8.730469 16.367188 8.71875 C 16.421875 8.691406 16.476562 8.660156 16.53125 8.632812 C 16.613281 8.589844 16.695312 8.546875 16.777344 8.503906 C 16.828125 8.480469 16.882812 8.453125 16.933594 8.425781 C 16.957031 8.410156 16.984375 8.398438 17.007812 8.386719 C 17.136719 8.328125 17.136719 8.328125 17.21875 8.214844 C 17.175781 8.144531 17.132812 8.078125 17.085938 8.007812 C 16.996094 8.007812 16.882812 8.132812 16.8125 8.191406 Z M 19.09375 9.035156 C 19.054688 9.074219 19.011719 9.113281 18.96875 9.152344 C 18.949219 9.171875 18.929688 9.191406 18.90625 9.210938 C 18.792969 9.316406 18.667969 9.414062 18.546875 9.515625 C 18.46875 9.582031 18.46875 9.582031 18.40625 9.683594 C 18.496094 9.640625 18.578125 9.59375 18.660156 9.535156 C 18.679688 9.519531 18.703125 9.503906 18.726562 9.488281 C 18.746094 9.472656 18.769531 9.457031 18.792969 9.4375 C 18.84375 9.402344 18.890625 9.371094 18.941406 9.335938 C 18.964844 9.316406 18.988281 9.300781 19.011719 9.28125 C 19.082031 9.234375 19.148438 9.183594 19.21875 9.136719 C 19.238281 9.125 19.257812 9.109375 19.28125 9.09375 C 19.335938 9.054688 19.390625 9.015625 19.449219 8.976562 C 19.488281 8.949219 19.488281 8.949219 19.527344 8.917969 C 19.527344 8.894531 19.527344 8.871094 19.527344 8.847656 C 19.324219 8.820312 19.234375 8.902344 19.09375 9.035156 Z M 10.710938 8.917969 C 10.671875 9.039062 10.671875 9.039062 10.644531 9.160156 C 10.695312 9.128906 10.746094 9.09375 10.792969 9.058594 C 10.824219 9.042969 10.851562 9.023438 10.878906 9.003906 C 10.953125 8.957031 10.953125 8.957031 10.984375 8.882812 C 10.878906 8.878906 10.8125 8.882812 10.710938 8.917969 Z M 9.730469 9.300781 C 9.730469 9.40625 9.730469 9.40625 9.730469 9.40625 Z M 10.792969 10.035156 C 10.773438 10.050781 10.75 10.066406 10.730469 10.085938 C 10.679688 10.125 10.628906 10.167969 10.578125 10.210938 C 10.617188 10.296875 10.644531 10.351562 10.710938 10.417969 C 10.746094 10.417969 10.777344 10.417969 10.8125 10.417969 C 10.902344 10.234375 10.992188 10.050781 11.085938 9.859375 C 10.964844 9.859375 10.882812 9.960938 10.792969 10.035156 Z M 12.644531 10.316406 C 12.632812 10.335938 12.621094 10.359375 12.609375 10.382812 C 12.644531 10.375 12.675781 10.363281 12.710938 10.351562 C 12.691406 10.339844 12.667969 10.328125 12.644531 10.316406 Z M 12.542969 10.382812 C 12.53125 10.40625 12.519531 10.429688 12.507812 10.453125 C 12.542969 10.441406 12.574219 10.429688 12.609375 10.417969 C 12.585938 10.40625 12.566406 10.398438 12.542969 10.382812 Z M 12.203125 10.613281 C 12.179688 10.628906 12.15625 10.644531 12.132812 10.664062 C 12.089844 10.695312 12.042969 10.726562 11.996094 10.757812 C 11.941406 10.800781 11.882812 10.839844 11.824219 10.878906 C 11.792969 10.898438 11.765625 10.921875 11.734375 10.941406 C 11.707031 10.960938 11.679688 10.980469 11.652344 10.996094 C 11.582031 11.046875 11.582031 11.046875 11.558594 11.152344 C 11.675781 11.132812 11.75 11.085938 11.84375 11.015625 C 11.886719 10.984375 11.886719 10.984375 11.925781 10.949219 C 11.957031 10.929688 11.984375 10.90625 12.015625 10.882812 C 12.042969 10.859375 12.070312 10.839844 12.101562 10.816406 C 12.25 10.703125 12.382812 10.59375 12.507812 10.453125 C 12.390625 10.453125 12.296875 10.546875 12.203125 10.613281 Z M 12.863281 11.421875 C 12.789062 11.460938 12.789062 11.460938 12.71875 11.5 C 12.691406 11.511719 12.667969 11.523438 12.644531 11.539062 C 12.554688 11.585938 12.464844 11.632812 12.371094 11.679688 C 12.347656 11.691406 12.320312 11.707031 12.292969 11.71875 C 12.273438 11.730469 12.257812 11.738281 12.238281 11.75 C 12.257812 11.792969 12.28125 11.839844 12.304688 11.886719 C 12.453125 11.886719 12.476562 11.871094 12.589844 11.785156 C 12.621094 11.761719 12.648438 11.742188 12.675781 11.71875 C 12.707031 11.695312 12.734375 11.671875 12.765625 11.648438 C 12.792969 11.628906 12.824219 11.605469 12.851562 11.582031 C 13.027344 11.445312 13.027344 11.445312 13.1875 11.292969 C 13.070312 11.292969 12.96875 11.367188 12.863281 11.421875 Z M 13.015625 12.484375 C 12.894531 12.566406 12.773438 12.648438 12.652344 12.730469 C 12.617188 12.753906 12.582031 12.777344 12.546875 12.800781 C 12.511719 12.824219 12.480469 12.847656 12.445312 12.871094 C 12.414062 12.894531 12.382812 12.914062 12.351562 12.933594 C 12.257812 13.019531 12.214844 13.097656 12.167969 13.214844 C 12.179688 13.238281 12.191406 13.261719 12.203125 13.285156 C 12.503906 13.039062 12.792969 12.777344 13.085938 12.515625 C 13.0625 12.507812 13.039062 12.496094 13.015625 12.484375 Z M 18.609375 13.214844 C 18.554688 13.285156 18.5 13.355469 18.441406 13.425781 C 18.546875 13.4375 18.546875 13.4375 18.644531 13.355469 C 18.632812 13.308594 18.621094 13.265625 18.609375 13.214844 Z M 15.847656 13.519531 C 15.820312 13.539062 15.796875 13.558594 15.773438 13.578125 C 15.746094 13.597656 15.71875 13.621094 15.691406 13.644531 C 15.636719 13.6875 15.582031 13.734375 15.527344 13.777344 C 15.5 13.800781 15.46875 13.824219 15.441406 13.847656 C 15.359375 13.914062 15.277344 13.980469 15.191406 14.042969 C 15.167969 14.0625 15.140625 14.082031 15.117188 14.105469 C 15.066406 14.144531 15.015625 14.179688 14.96875 14.21875 C 14.839844 14.320312 14.722656 14.421875 14.609375 14.546875 C 15.054688 14.398438 15.328125 14.175781 15.640625 13.832031 C 15.726562 13.742188 15.820312 13.660156 15.917969 13.578125 C 15.976562 13.527344 15.976562 13.527344 16.035156 13.425781 C 15.945312 13.425781 15.917969 13.460938 15.847656 13.519531 Z M 16.621094 14.289062 C 16.578125 14.320312 16.539062 14.351562 16.496094 14.382812 C 16.476562 14.398438 16.457031 14.414062 16.4375 14.429688 C 16.335938 14.503906 16.234375 14.578125 16.136719 14.648438 C 16.160156 14.765625 16.160156 14.765625 16.273438 14.8125 C 16.324219 14.835938 16.324219 14.835938 16.371094 14.859375 C 16.570312 14.625 16.757812 14.390625 16.914062 14.125 C 16.796875 14.125 16.710938 14.21875 16.621094 14.289062 Z M 13.21875 14.40625 C 13.210938 14.429688 13.199219 14.453125 13.1875 14.476562 C 13.21875 14.464844 13.253906 14.453125 13.289062 14.441406 C 13.265625 14.429688 13.242188 14.417969 13.21875 14.40625 Z M 12.996094 14.5625 C 12.960938 14.589844 12.960938 14.589844 12.921875 14.617188 C 12.898438 14.636719 12.871094 14.65625 12.84375 14.679688 C 12.636719 14.835938 12.429688 14.988281 12.21875 15.136719 C 12.199219 15.152344 12.175781 15.167969 12.152344 15.183594 C 12.058594 15.253906 11.960938 15.316406 11.859375 15.378906 C 11.683594 15.488281 11.609375 15.5625 11.558594 15.769531 C 11.546875 15.839844 11.535156 15.910156 11.527344 15.980469 C 11.515625 16.050781 11.503906 16.117188 11.492188 16.1875 C 11.632812 16.167969 11.632812 16.167969 11.761719 16.117188 C 11.773438 16.042969 11.773438 16.042969 11.773438 15.953125 C 11.785156 15.828125 11.789062 15.78125 11.863281 15.679688 C 11.914062 15.636719 11.914062 15.636719 11.964844 15.59375 C 12.019531 15.546875 12.070312 15.496094 12.121094 15.445312 C 12.269531 15.308594 12.421875 15.179688 12.574219 15.050781 C 12.695312 14.949219 12.816406 14.84375 12.9375 14.738281 C 12.96875 14.710938 12.96875 14.710938 13 14.683594 C 13.109375 14.59375 13.109375 14.59375 13.1875 14.476562 C 13.097656 14.476562 13.070312 14.507812 12.996094 14.5625 Z M 17.628906 15 C 17.480469 15.105469 17.335938 15.207031 17.1875 15.316406 C 17.277344 15.425781 17.277344 15.425781 17.390625 15.453125 C 17.492188 15.316406 17.589844 15.175781 17.695312 15.035156 C 17.671875 15.023438 17.648438 15.011719 17.628906 15 Z M 18.441406 15.980469 C 18.535156 16.085938 18.570312 16.117188 18.710938 16.152344 C 18.722656 16.050781 18.734375 15.945312 18.746094 15.839844 C 18.609375 15.839844 18.550781 15.898438 18.441406 15.980469 Z M 18.441406 15.980469 "/>
<path style=" stroke:none;fill-rule:nonzero;fill:rgb(27.843139%,27.450982%,26.666668%);fill-opacity:1;" d="M 15.355469 3.285156 C 15.476562 3.34375 15.519531 3.378906 15.59375 3.496094 C 15.660156 3.519531 15.660156 3.519531 15.738281 3.527344 C 15.894531 3.558594 15.96875 3.613281 16.066406 3.742188 C 16.132812 3.871094 16.109375 4.019531 16.078125 4.15625 C 16.066406 4.292969 16.09375 4.339844 16.160156 4.453125 C 16.179688 4.488281 16.203125 4.523438 16.222656 4.558594 C 16.246094 4.597656 16.269531 4.636719 16.292969 4.675781 C 16.339844 4.753906 16.386719 4.835938 16.433594 4.917969 C 16.445312 4.9375 16.457031 4.960938 16.46875 4.980469 C 16.640625 5.285156 16.78125 5.601562 16.925781 5.917969 C 16.949219 5.96875 16.949219 5.96875 16.972656 6.023438 C 17 6.082031 17.027344 6.144531 17.054688 6.207031 C 17.140625 6.390625 17.203125 6.429688 17.390625 6.503906 C 17.476562 6.605469 17.496094 6.6875 17.5 6.820312 C 17.492188 6.957031 17.492188 6.957031 17.46875 7.027344 C 17.453125 7.121094 17.476562 7.152344 17.527344 7.230469 C 17.546875 7.265625 17.546875 7.265625 17.570312 7.304688 C 17.597656 7.339844 17.597656 7.339844 17.621094 7.378906 C 17.644531 7.417969 17.644531 7.417969 17.667969 7.457031 C 17.785156 7.671875 17.785156 7.671875 17.972656 7.789062 C 18.015625 7.796875 18.0625 7.804688 18.109375 7.8125 C 18.132812 7.816406 18.15625 7.820312 18.183594 7.824219 C 18.234375 7.832031 18.285156 7.839844 18.335938 7.847656 C 18.414062 7.859375 18.492188 7.871094 18.570312 7.882812 C 18.621094 7.890625 18.671875 7.898438 18.722656 7.90625 C 18.753906 7.910156 18.753906 7.910156 18.792969 7.917969 C 18.980469 7.945312 19.125 7.949219 19.28125 7.828125 C 19.410156 7.75 19.476562 7.75 19.621094 7.773438 C 19.734375 7.8125 19.792969 7.875 19.863281 7.972656 C 19.875 8.007812 19.886719 8.042969 19.898438 8.078125 C 20.171875 8.1875 20.484375 8.214844 20.773438 8.257812 C 20.847656 8.269531 20.921875 8.28125 20.992188 8.292969 C 21.210938 8.324219 21.429688 8.359375 21.648438 8.386719 C 21.679688 8.390625 21.714844 8.394531 21.746094 8.398438 C 21.804688 8.40625 21.867188 8.414062 21.925781 8.421875 C 22.089844 8.441406 22.183594 8.476562 22.304688 8.601562 C 22.363281 8.707031 22.371094 8.769531 22.375 8.890625 C 22.324219 9.070312 22.226562 9.171875 22.101562 9.300781 C 22.078125 9.324219 22.058594 9.347656 22.035156 9.371094 C 21.988281 9.417969 21.941406 9.464844 21.898438 9.511719 C 21.8125 9.601562 21.730469 9.695312 21.652344 9.792969 C 21.597656 9.855469 21.539062 9.917969 21.480469 9.976562 C 21.351562 10.105469 21.238281 10.25 21.128906 10.394531 C 21.058594 10.480469 20.988281 10.5625 20.914062 10.648438 C 20.820312 10.753906 20.730469 10.867188 20.644531 10.980469 C 19.761719 12.097656 19.761719 12.097656 19.355469 12.308594 C 19.367188 12.527344 19.378906 12.746094 19.390625 12.972656 C 19.445312 12.996094 19.5 13.019531 19.558594 13.042969 C 19.660156 13.136719 19.6875 13.246094 19.703125 13.386719 C 19.691406 13.476562 19.664062 13.519531 19.613281 13.589844 C 19.398438 13.90625 19.542969 14.460938 19.59375 14.824219 C 19.605469 14.847656 19.617188 14.871094 19.628906 14.894531 C 19.636719 14.992188 19.648438 15.089844 19.65625 15.1875 C 19.691406 15.550781 19.75 15.90625 19.816406 16.265625 C 19.839844 16.382812 19.859375 16.503906 19.882812 16.621094 C 19.886719 16.648438 19.894531 16.671875 19.898438 16.699219 C 19.9375 16.914062 19.972656 17.121094 19.875 17.320312 C 19.789062 17.417969 19.75 17.457031 19.628906 17.484375 C 19.417969 17.46875 19.265625 17.394531 19.082031 17.296875 C 19.054688 17.28125 19.023438 17.265625 18.996094 17.25 C 18.703125 17.097656 18.417969 16.933594 18.132812 16.769531 C 17.84375 16.582031 17.84375 16.582031 17.527344 16.574219 C 17.355469 16.59375 17.230469 16.605469 17.085938 16.503906 C 17.015625 16.398438 17.015625 16.398438 16.984375 16.265625 C 16.910156 16.066406 16.757812 16.007812 16.582031 15.921875 C 16.265625 15.757812 15.980469 15.574219 15.699219 15.351562 C 15.554688 15.238281 15.554688 15.238281 15.378906 15.21875 C 15.300781 15.246094 15.300781 15.246094 15.222656 15.285156 C 15.152344 15.316406 15.152344 15.316406 15.035156 15.3125 C 14.863281 15.316406 14.734375 15.386719 14.582031 15.46875 C 14.535156 15.492188 14.535156 15.492188 14.488281 15.515625 C 14.074219 15.726562 13.675781 15.960938 13.285156 16.210938 C 12.746094 16.550781 12.171875 16.808594 11.59375 17.0625 C 11.550781 17.082031 11.550781 17.082031 11.507812 17.101562 C 11.433594 17.132812 11.359375 17.164062 11.285156 17.195312 C 11.242188 17.210938 11.203125 17.226562 11.164062 17.242188 C 11.03125 17.277344 10.945312 17.269531 10.8125 17.238281 C 10.679688 17.152344 10.621094 17.078125 10.578125 16.921875 C 10.582031 16.816406 10.582031 16.816406 10.601562 16.695312 C 10.605469 16.652344 10.613281 16.609375 10.621094 16.566406 C 10.65625 16.367188 10.691406 16.171875 10.730469 15.976562 C 10.742188 15.914062 10.742188 15.914062 10.757812 15.847656 C 10.773438 15.761719 10.792969 15.671875 10.808594 15.582031 C 10.835938 15.453125 10.863281 15.320312 10.890625 15.1875 C 10.984375 14.703125 11.089844 14.222656 11.210938 13.742188 C 11.316406 13.425781 11.316406 13.425781 11.289062 13.113281 C 11.265625 12.976562 11.257812 12.847656 11.328125 12.726562 C 11.40625 12.636719 11.488281 12.554688 11.574219 12.476562 C 11.589844 12.453125 11.609375 12.433594 11.628906 12.414062 C 11.617188 12.277344 11.546875 12.214844 11.457031 12.121094 C 11.429688 12.09375 11.398438 12.066406 11.371094 12.039062 C 11.277344 11.949219 11.183594 11.863281 11.089844 11.777344 C 11.003906 11.703125 10.921875 11.625 10.839844 11.546875 C 10.6875 11.402344 10.527344 11.269531 10.363281 11.140625 C 10.25 11.050781 10.144531 10.960938 10.042969 10.859375 C 9.921875 10.742188 9.816406 10.699219 9.660156 10.65625 C 9.546875 10.609375 9.507812 10.527344 9.457031 10.417969 C 9.449219 10.394531 9.441406 10.367188 9.429688 10.339844 C 9.378906 10.21875 9.304688 10.125 9.21875 10.027344 C 9.195312 10 9.195312 10 9.167969 9.972656 C 9.042969 9.835938 8.953125 9.785156 8.777344 9.765625 C 8.710938 9.753906 8.710938 9.753906 8.609375 9.679688 C 8.527344 9.558594 8.519531 9.480469 8.507812 9.335938 C 8.492188 9.179688 8.492188 9.179688 8.417969 9.046875 C 8.359375 8.925781 8.367188 8.847656 8.375 8.714844 C 8.425781 8.589844 8.496094 8.523438 8.609375 8.460938 C 8.761719 8.414062 8.910156 8.382812 9.066406 8.351562 C 9.128906 8.339844 9.128906 8.339844 9.195312 8.324219 C 9.371094 8.289062 9.546875 8.253906 9.726562 8.222656 C 9.980469 8.179688 9.980469 8.179688 10.199219 8.054688 C 10.328125 7.953125 10.445312 7.917969 10.609375 7.9375 C 10.636719 7.953125 10.660156 7.972656 10.6875 7.988281 C 10.808594 8.058594 10.917969 8.054688 11.054688 8.054688 C 11.082031 8.050781 11.109375 8.050781 11.136719 8.050781 C 11.53125 8.042969 11.921875 8.003906 12.304688 7.902344 C 12.382812 7.886719 12.457031 7.875 12.535156 7.863281 C 12.605469 7.855469 12.675781 7.84375 12.746094 7.832031 C 12.769531 7.828125 12.789062 7.828125 12.8125 7.824219 C 12.914062 7.785156 12.925781 7.722656 12.96875 7.625 C 12.984375 7.589844 13 7.554688 13.015625 7.519531 C 13.03125 7.480469 13.046875 7.445312 13.0625 7.40625 C 13.078125 7.371094 13.09375 7.332031 13.109375 7.296875 C 13.125 7.261719 13.140625 7.226562 13.152344 7.1875 C 13.167969 7.15625 13.179688 7.125 13.195312 7.089844 C 13.226562 6.972656 13.210938 6.898438 13.1875 6.785156 C 13.160156 6.546875 13.160156 6.546875 13.226562 6.433594 C 13.300781 6.339844 13.363281 6.269531 13.472656 6.21875 C 13.601562 6.121094 13.632812 5.996094 13.683594 5.839844 C 13.914062 5.210938 14.230469 4.625 14.558594 4.042969 C 14.589844 3.984375 14.625 3.925781 14.65625 3.867188 C 14.699219 3.792969 14.738281 3.71875 14.78125 3.648438 C 14.800781 3.609375 14.824219 3.566406 14.847656 3.527344 C 14.988281 3.316406 15.117188 3.246094 15.355469 3.285156 Z M 15.21875 4.476562 C 15.144531 4.613281 15.066406 4.75 14.992188 4.890625 C 14.960938 4.941406 14.933594 4.992188 14.90625 5.042969 C 14.859375 5.121094 14.816406 5.203125 14.773438 5.28125 C 14.753906 5.316406 14.753906 5.316406 14.730469 5.355469 C 14.632812 5.539062 14.558594 5.730469 14.484375 5.925781 C 14.390625 6.183594 14.285156 6.433594 14.183594 6.683594 C 14.101562 6.890625 14.019531 7.097656 13.945312 7.304688 C 13.851562 7.558594 13.742188 7.800781 13.628906 8.042969 C 13.609375 8.078125 13.589844 8.117188 13.574219 8.15625 C 13.554688 8.191406 13.539062 8.226562 13.519531 8.261719 C 13.5 8.304688 13.5 8.304688 13.476562 8.351562 C 13.359375 8.519531 13.191406 8.558594 13.003906 8.597656 C 12.980469 8.605469 12.953125 8.609375 12.929688 8.617188 C 12.84375 8.636719 12.761719 8.652344 12.679688 8.671875 C 12.648438 8.675781 12.621094 8.683594 12.59375 8.691406 C 12.164062 8.78125 11.738281 8.828125 11.300781 8.851562 C 10.949219 8.867188 10.605469 8.902344 10.257812 8.949219 C 10.195312 8.960938 10.195312 8.960938 10.128906 8.96875 C 9.914062 9 9.703125 9.039062 9.492188 9.089844 C 9.546875 9.207031 9.605469 9.292969 9.691406 9.386719 C 9.71875 9.417969 9.746094 9.449219 9.773438 9.480469 C 9.804688 9.511719 9.835938 9.546875 9.863281 9.582031 C 9.894531 9.617188 9.925781 9.652344 9.957031 9.6875 C 10.261719 10.035156 10.601562 10.320312 10.953125 10.613281 C 11.382812 10.964844 11.382812 10.964844 11.570312 11.164062 C 11.675781 11.273438 11.785156 11.371094 11.898438 11.46875 C 12.058594 11.613281 12.210938 11.75 12.339844 11.921875 C 12.390625 11.957031 12.390625 11.957031 12.441406 11.992188 C 12.53125 12.222656 12.453125 12.433594 12.367188 12.652344 C 12.078125 13.382812 11.878906 14.144531 11.738281 14.917969 C 11.730469 14.96875 11.722656 15.015625 11.714844 15.0625 C 11.710938 15.085938 11.707031 15.113281 11.699219 15.136719 C 11.667969 15.324219 11.625 15.511719 11.582031 15.695312 C 11.546875 15.859375 11.519531 16.023438 11.492188 16.1875 C 11.65625 16.167969 11.777344 16.117188 11.921875 16.039062 C 12.058594 15.964844 12.191406 15.898438 12.335938 15.84375 C 12.507812 15.773438 12.660156 15.679688 12.816406 15.574219 C 12.871094 15.535156 12.929688 15.496094 12.984375 15.460938 C 13.011719 15.441406 13.042969 15.421875 13.070312 15.402344 C 13.558594 15.082031 14.070312 14.820312 14.601562 14.578125 C 14.6875 14.539062 14.773438 14.496094 14.859375 14.453125 C 15.09375 14.332031 15.292969 14.265625 15.558594 14.265625 C 15.558594 14.289062 15.558594 14.3125 15.558594 14.335938 C 15.621094 14.382812 15.621094 14.382812 15.707031 14.425781 C 15.832031 14.503906 15.949219 14.582031 16.0625 14.671875 C 16.445312 14.964844 16.867188 15.210938 17.292969 15.421875 C 17.484375 15.519531 17.667969 15.625 17.851562 15.738281 C 17.980469 15.816406 18.089844 15.859375 18.238281 15.875 C 18.238281 15.898438 18.238281 15.921875 18.238281 15.945312 C 18.324219 15.988281 18.410156 16.035156 18.496094 16.078125 C 18.519531 16.09375 18.542969 16.105469 18.570312 16.117188 C 18.703125 16.1875 18.835938 16.25 18.984375 16.292969 C 18.972656 16.058594 18.949219 15.832031 18.902344 15.597656 C 18.816406 15.125 18.789062 14.640625 18.75 14.160156 C 18.734375 13.949219 18.714844 13.742188 18.699219 13.535156 C 18.691406 13.464844 18.6875 13.394531 18.679688 13.320312 C 18.660156 13.082031 18.632812 12.84375 18.589844 12.605469 C 18.570312 12.480469 18.5625 12.363281 18.5625 12.238281 C 18.558594 12.195312 18.558594 12.152344 18.558594 12.109375 C 18.582031 11.960938 18.636719 11.914062 18.746094 11.816406 C 18.769531 11.796875 18.789062 11.773438 18.8125 11.75 C 18.917969 11.636719 19.023438 11.53125 19.136719 11.429688 C 19.5 11.109375 19.832031 10.75 20.128906 10.367188 C 20.164062 10.320312 20.203125 10.273438 20.238281 10.226562 C 20.257812 10.199219 20.277344 10.175781 20.296875 10.152344 C 20.453125 9.953125 20.617188 9.765625 20.789062 9.578125 C 20.988281 9.394531 20.988281 9.394531 21.085938 9.160156 C 20.816406 9.085938 20.550781 9.03125 20.277344 8.988281 C 20.011719 8.945312 19.746094 8.902344 19.480469 8.851562 C 19.0625 8.769531 18.640625 8.699219 18.21875 8.628906 C 18.171875 8.617188 18.121094 8.609375 18.070312 8.601562 C 17.960938 8.582031 17.851562 8.566406 17.742188 8.550781 C 17.6875 8.542969 17.6875 8.542969 17.632812 8.535156 C 17.601562 8.53125 17.570312 8.527344 17.539062 8.523438 C 17.398438 8.476562 17.320312 8.363281 17.242188 8.238281 C 17.226562 8.21875 17.210938 8.195312 17.199219 8.171875 C 17.183594 8.152344 17.167969 8.128906 17.15625 8.105469 C 17.140625 8.082031 17.125 8.058594 17.109375 8.035156 C 17.003906 7.867188 16.902344 7.695312 16.8125 7.515625 C 16.792969 7.515625 16.769531 7.515625 16.746094 7.515625 C 16.734375 7.472656 16.71875 7.429688 16.707031 7.382812 C 16.640625 7.1875 16.558594 7 16.472656 6.8125 C 16.457031 6.777344 16.441406 6.742188 16.425781 6.703125 C 16.375 6.589844 16.324219 6.476562 16.269531 6.363281 C 16.253906 6.328125 16.238281 6.292969 16.222656 6.253906 C 16.039062 5.847656 15.847656 5.449219 15.628906 5.0625 C 15.59375 5 15.558594 4.9375 15.523438 4.871094 C 15.503906 4.832031 15.480469 4.796875 15.460938 4.753906 C 15.441406 4.722656 15.421875 4.6875 15.402344 4.652344 C 15.386719 4.628906 15.371094 4.605469 15.355469 4.582031 C 15.332031 4.582031 15.3125 4.582031 15.289062 4.582031 C 15.289062 4.546875 15.289062 4.511719 15.289062 4.476562 C 15.265625 4.476562 15.242188 4.476562 15.21875 4.476562 Z M 15.21875 4.476562 "/>
<path style=" stroke:none;fill-rule:nonzero;fill:rgb(27.843139%,27.843139%,27.843139%);fill-opacity:1;" d="M 10.371094 2.867188 C 10.445312 2.925781 10.503906 2.976562 10.566406 3.046875 C 10.582031 3.0625 10.597656 3.082031 10.617188 3.101562 C 10.671875 3.15625 10.722656 3.214844 10.777344 3.273438 C 10.847656 3.347656 10.917969 3.425781 10.992188 3.5 C 11.007812 3.519531 11.023438 3.535156 11.042969 3.554688 C 11.152344 3.671875 11.265625 3.78125 11.386719 3.886719 C 11.554688 4.039062 11.710938 4.210938 11.871094 4.375 C 11.90625 4.414062 11.945312 4.449219 11.980469 4.488281 C 12.046875 4.558594 12.113281 4.628906 12.179688 4.695312 C 12.242188 4.761719 12.304688 4.824219 12.367188 4.882812 C 12.449219 4.972656 12.472656 5.015625 12.472656 5.140625 C 12.4375 5.242188 12.398438 5.300781 12.308594 5.355469 C 12.214844 5.398438 12.117188 5.4375 12.023438 5.476562 C 11.96875 5.5 11.96875 5.5 11.910156 5.523438 C 11.824219 5.558594 11.738281 5.597656 11.648438 5.632812 C 11.464844 5.710938 11.277344 5.789062 11.09375 5.871094 C 10.816406 5.988281 10.535156 6.105469 10.257812 6.226562 C 10.226562 6.238281 10.199219 6.25 10.167969 6.265625 C 10.113281 6.289062 10.054688 6.3125 10 6.335938 C 9.945312 6.359375 9.890625 6.382812 9.832031 6.40625 C 9.730469 6.445312 9.664062 6.429688 9.558594 6.398438 C 9.496094 6.359375 9.496094 6.359375 9.457031 6.292969 C 9.433594 6.085938 9.433594 6.085938 9.507812 5.980469 C 9.628906 5.882812 9.757812 5.828125 9.898438 5.769531 C 9.929688 5.757812 9.957031 5.746094 9.988281 5.730469 C 10.085938 5.691406 10.179688 5.652344 10.277344 5.613281 C 10.339844 5.585938 10.402344 5.558594 10.464844 5.53125 C 10.75 5.410156 11.035156 5.292969 11.320312 5.175781 C 11.214844 5.128906 11.121094 5.09375 11.007812 5.078125 C 10.980469 5.070312 10.953125 5.066406 10.925781 5.0625 C 10.898438 5.058594 10.871094 5.054688 10.84375 5.050781 C 10.8125 5.046875 10.785156 5.042969 10.753906 5.035156 C 10.671875 5.023438 10.589844 5.011719 10.507812 5 C 10.476562 4.996094 10.441406 4.992188 10.410156 4.984375 C 8.855469 4.800781 7.265625 5.273438 6.042969 6.269531 C 5.457031 6.757812 4.980469 7.328125 4.609375 8.007812 C 4.597656 8.027344 4.585938 8.046875 4.574219 8.070312 C 4.089844 8.953125 3.8125 9.945312 3.71875 10.953125 C 3.691406 11.070312 3.648438 11.117188 3.558594 11.1875 C 3.457031 11.207031 3.457031 11.207031 3.355469 11.1875 C 3.265625 11.117188 3.226562 11.074219 3.203125 10.957031 C 3.210938 10.699219 3.242188 10.449219 3.292969 10.195312 C 3.304688 10.136719 3.304688 10.136719 3.316406 10.074219 C 3.59375 8.675781 4.179688 7.453125 5.117188 6.398438 C 5.15625 6.355469 5.15625 6.355469 5.199219 6.308594 C 5.394531 6.097656 5.613281 5.921875 5.835938 5.746094 C 5.875 5.714844 5.917969 5.683594 5.957031 5.652344 C 7.363281 4.539062 9.167969 4.257812 10.890625 4.484375 C 11.023438 4.503906 11.15625 4.523438 11.289062 4.546875 C 11.210938 4.464844 11.132812 4.382812 11.054688 4.304688 C 11.03125 4.28125 11.011719 4.257812 10.988281 4.234375 C 10.96875 4.210938 10.945312 4.1875 10.925781 4.167969 C 10.90625 4.144531 10.886719 4.125 10.863281 4.105469 C 10.816406 4.050781 10.816406 4.050781 10.746094 4.019531 C 10.746094 3.996094 10.746094 3.976562 10.746094 3.949219 C 10.726562 3.941406 10.707031 3.933594 10.6875 3.925781 C 10.535156 3.839844 10.421875 3.699219 10.296875 3.574219 C 10.269531 3.546875 10.242188 3.519531 10.214844 3.492188 C 10.171875 3.449219 10.171875 3.449219 10.132812 3.40625 C 10.109375 3.382812 10.082031 3.359375 10.058594 3.332031 C 9.988281 3.234375 9.972656 3.164062 9.964844 3.042969 C 10.066406 2.824219 10.148438 2.8125 10.371094 2.867188 Z M 10.371094 2.867188 "/>
<path style=" stroke:none;fill-rule:nonzero;fill:rgb(96.862745%,73.725492%,8.627451%);fill-opacity:1;" d="M 19.695312 7.796875 C 19.816406 7.894531 19.867188 7.960938 19.898438 8.113281 C 19.773438 8.097656 19.652344 8.082031 19.527344 8.0625 C 19.476562 8.058594 19.476562 8.058594 19.421875 8.050781 C 19.386719 8.046875 19.355469 8.042969 19.320312 8.035156 C 19.289062 8.03125 19.257812 8.027344 19.226562 8.023438 C 19.199219 8.019531 19.175781 8.011719 19.152344 8.007812 C 19.140625 7.984375 19.128906 7.960938 19.117188 7.9375 C 19.308594 7.785156 19.460938 7.710938 19.695312 7.796875 Z M 19.695312 7.796875 "/>
<path style=" stroke:none;fill-rule:nonzero;fill:rgb(98.039216%,74.509805%,7.843138%);fill-opacity:1;" d="M 15.59375 3.53125 C 15.761719 3.535156 15.867188 3.539062 16 3.652344 C 16.109375 3.792969 16.109375 3.875 16.101562 4.054688 C 16.066406 4.160156 16.066406 4.160156 16.035156 4.230469 C 16.011719 4.195312 15.988281 4.160156 15.964844 4.125 C 15.941406 4.085938 15.914062 4.042969 15.886719 4.003906 C 15.855469 3.957031 15.824219 3.910156 15.792969 3.863281 C 15.777344 3.835938 15.761719 3.8125 15.746094 3.789062 C 15.730469 3.765625 15.71875 3.742188 15.703125 3.71875 C 15.683594 3.6875 15.683594 3.6875 15.660156 3.65625 C 15.628906 3.601562 15.628906 3.601562 15.59375 3.53125 Z M 15.59375 3.53125 "/>
<path style=" stroke:none;fill-rule:nonzero;fill:rgb(97.254902%,74.117649%,8.235294%);fill-opacity:1;" d="M 16.949219 16.117188 C 17.097656 16.175781 17.230469 16.25 17.367188 16.332031 C 17.386719 16.347656 17.410156 16.359375 17.433594 16.371094 C 17.488281 16.40625 17.539062 16.4375 17.59375 16.46875 C 17.59375 16.492188 17.59375 16.515625 17.59375 16.539062 C 17.46875 16.605469 17.324219 16.59375 17.1875 16.574219 C 17.027344 16.460938 16.988281 16.34375 16.949219 16.152344 C 16.949219 16.140625 16.949219 16.128906 16.949219 16.117188 Z M 16.949219 16.117188 "/>
<path style=" stroke:none;fill-rule:nonzero;fill:rgb(98.431373%,74.901962%,9.411765%);fill-opacity:1;" d="M 19.421875 12.972656 C 19.574219 13.058594 19.636719 13.117188 19.695312 13.285156 C 19.691406 13.480469 19.636719 13.589844 19.527344 13.742188 C 19.441406 13.65625 19.449219 13.628906 19.445312 13.511719 C 19.441406 13.480469 19.441406 13.449219 19.441406 13.417969 C 19.4375 13.382812 19.4375 13.351562 19.4375 13.316406 C 19.433594 13.285156 19.433594 13.25 19.433594 13.21875 C 19.429688 13.136719 19.425781 13.054688 19.421875 12.972656 Z M 19.421875 12.972656 "/>
<path style=" stroke:none;fill-rule:nonzero;fill:rgb(98.431373%,74.117649%,6.666667%);fill-opacity:1;" d="M 13.492188 6.1875 C 13.515625 6.199219 13.535156 6.210938 13.558594 6.222656 C 13.46875 6.441406 13.378906 6.664062 13.289062 6.886719 C 13.1875 6.785156 13.1875 6.785156 13.167969 6.652344 C 13.171875 6.496094 13.234375 6.417969 13.335938 6.308594 C 13.390625 6.257812 13.390625 6.257812 13.492188 6.1875 Z M 13.492188 6.1875 "/>
<path style=" stroke:none;fill-rule:nonzero;fill:rgb(97.254902%,74.117649%,10.196079%);fill-opacity:1;" d="M 8.542969 9.230469 C 8.707031 9.390625 8.847656 9.570312 8.984375 9.753906 C 8.984375 9.765625 8.984375 9.777344 8.984375 9.789062 C 8.824219 9.800781 8.734375 9.792969 8.609375 9.683594 C 8.519531 9.519531 8.496094 9.414062 8.542969 9.230469 Z M 8.542969 9.230469 "/>
<path style=" stroke:none;fill-rule:nonzero;fill:rgb(98.823529%,75.294119%,9.411765%);fill-opacity:1;" d="M 17.117188 6.398438 C 17.269531 6.441406 17.355469 6.484375 17.457031 6.609375 C 17.496094 6.6875 17.496094 6.730469 17.496094 6.816406 C 17.5 6.84375 17.5 6.867188 17.5 6.890625 C 17.492188 6.957031 17.492188 6.957031 17.421875 7.027344 C 17.371094 6.9375 17.320312 6.84375 17.269531 6.753906 C 17.25 6.714844 17.25 6.714844 17.226562 6.671875 C 17.214844 6.648438 17.199219 6.625 17.183594 6.597656 C 17.171875 6.574219 17.160156 6.550781 17.148438 6.527344 C 17.117188 6.46875 17.117188 6.46875 17.117188 6.398438 Z M 17.117188 6.398438 "/>
<path style=" stroke:none;fill-rule:nonzero;fill:rgb(94.901961%,72.549021%,10.980392%);fill-opacity:1;" d="M 10.609375 7.9375 C 10.707031 7.984375 10.707031 7.984375 10.78125 8.042969 C 10.78125 8.066406 10.78125 8.089844 10.78125 8.113281 C 10.699219 8.125 10.617188 8.136719 10.539062 8.148438 C 10.515625 8.148438 10.492188 8.152344 10.46875 8.15625 C 10.335938 8.175781 10.203125 8.183594 10.066406 8.183594 C 10.21875 8.007812 10.378906 7.90625 10.609375 7.9375 Z M 10.609375 7.9375 "/>
<path style=" stroke:none;fill-rule:nonzero;fill:rgb(95.294118%,72.549021%,8.235294%);fill-opacity:1;" d="M 11.59375 12.484375 C 11.59375 12.597656 11.570312 12.667969 11.53125 12.773438 C 11.480469 12.910156 11.433594 13.042969 11.390625 13.183594 C 11.367188 13.183594 11.34375 13.183594 11.320312 13.183594 C 11.261719 13.058594 11.265625 12.929688 11.289062 12.796875 C 11.367188 12.660156 11.464844 12.570312 11.59375 12.484375 Z M 11.59375 12.484375 "/>
<path style=" stroke:none;fill-rule:nonzero;fill:rgb(97.647059%,76.078433%,20.392157%);fill-opacity:1;" d="M 16.167969 13.25 C 16.191406 13.261719 16.214844 13.273438 16.238281 13.285156 C 15.960938 13.597656 15.679688 13.898438 15.390625 14.195312 C 15.414062 14.21875 15.433594 14.242188 15.457031 14.265625 C 15.378906 14.265625 15.300781 14.265625 15.21875 14.265625 C 15.429688 14.003906 15.65625 13.769531 15.910156 13.554688 C 15.96875 13.492188 15.996094 13.433594 16.035156 13.355469 C 16.105469 13.296875 16.105469 13.296875 16.167969 13.25 Z M 16.167969 13.25 "/>
<path style=" stroke:none;fill-rule:nonzero;fill:rgb(94.901961%,73.725492%,17.254902%);fill-opacity:1;" d="M 9.457031 10.316406 C 9.597656 10.433594 9.722656 10.546875 9.832031 10.699219 C 9.710938 10.6875 9.660156 10.664062 9.566406 10.585938 C 9.492188 10.488281 9.46875 10.4375 9.457031 10.316406 Z M 9.457031 10.316406 "/>
<path style=" stroke:none;fill-rule:nonzero;fill:rgb(90.980393%,70.588237%,14.901961%);fill-opacity:1;" d="M 15.390625 15.140625 C 15.378906 15.175781 15.367188 15.210938 15.355469 15.246094 C 15.296875 15.273438 15.296875 15.273438 15.226562 15.289062 C 15.191406 15.300781 15.191406 15.300781 15.15625 15.308594 C 15.070312 15.316406 15.023438 15.289062 14.949219 15.246094 C 14.996094 15.21875 15.046875 15.195312 15.09375 15.171875 C 15.121094 15.160156 15.148438 15.144531 15.175781 15.132812 C 15.261719 15.101562 15.304688 15.105469 15.390625 15.140625 Z M 15.390625 15.140625 "/>
<path style=" stroke:none;fill-rule:nonzero;fill:rgb(97.254902%,75.686276%,18.82353%);fill-opacity:1;" d="M 13.492188 6.1875 C 13.515625 6.199219 13.535156 6.210938 13.558594 6.222656 C 13.535156 6.28125 13.515625 6.339844 13.492188 6.398438 C 13.457031 6.398438 13.425781 6.398438 13.390625 6.398438 C 13.355469 6.433594 13.320312 6.46875 13.289062 6.503906 C 13.265625 6.503906 13.242188 6.503906 13.21875 6.503906 C 13.273438 6.355469 13.375 6.285156 13.492188 6.1875 Z M 13.492188 6.1875 "/>
<path style=" stroke:none;fill-rule:nonzero;fill:rgb(92.156863%,71.372551%,14.901961%);fill-opacity:1;" d="M 14.101562 7.203125 C 14.125 7.214844 14.144531 7.226562 14.167969 7.238281 C 14.089844 7.328125 14.011719 7.421875 13.933594 7.515625 C 13.898438 7.378906 13.898438 7.378906 13.933594 7.308594 C 14.015625 7.25 14.015625 7.25 14.101562 7.203125 Z M 14.101562 7.203125 "/>
<path style=" stroke:none;fill-rule:nonzero;fill:rgb(99.607843%,77.64706%,18.431373%);fill-opacity:1;" d="M 12.066406 15.453125 C 12.089844 15.464844 12.113281 15.476562 12.136719 15.488281 C 12.097656 15.53125 12.058594 15.570312 12.019531 15.613281 C 12 15.632812 11.980469 15.65625 11.957031 15.679688 C 11.898438 15.734375 11.898438 15.734375 11.832031 15.734375 C 11.878906 15.589844 11.953125 15.546875 12.066406 15.453125 Z M 12.066406 15.453125 "/>
</g>
</svg>
